<?xml version="1.0" encoding="utf-8"?>
<!-- Generator: Adobe Illustrator 17.1.0, SVG Export Plug-In . SVG Version: 6.00 Build 0)  -->
<!DOCTYPE svg PUBLIC "-//W3C//DTD SVG 1.1//EN" "http://www.w3.org/Graphics/SVG/1.1/DTD/svg11.dtd">
<svg version="1.1" id="Layer_1" xmlns="http://www.w3.org/2000/svg" xmlns:xlink="http://www.w3.org/1999/xlink" x="0px" y="0px"
	 viewBox="0 0 100 45.9" enable-background="new 0 0 100 45.9" xml:space="preserve">
<g transform="translate(0,-952.36218)">
	<path fill="#177C3E" d="M100,975.3c0-1.3-0.8-2.8-2-3.5l-32.4-18.9c-1.2-0.7-2.9-0.7-4.1,0c-1.2,0.7-2,2.1-2,3.5v14.9H4.1
		c-2.2,0-4.1,1.8-4.1,4.1c0,2.2,1.8,4.1,4.1,4.1h55.4v14.9c0,1.4,0.8,2.8,2,3.5c1.2,0.7,2.9,0.7,4.1,0L98,978.8
		C99.3,978.1,99.9,976.9,100,975.3L100,975.3z M87.9,975.3l-20.4,11.9v-23.7L87.9,975.3z"/>
</g>
</svg>
