<?xml version="1.0" encoding="utf-8"?>
<!-- Generator: Adobe Illustrator 17.1.0, SVG Export Plug-In . SVG Version: 6.00 Build 0)  -->
<!DOCTYPE svg PUBLIC "-//W3C//DTD SVG 1.1//EN" "http://www.w3.org/Graphics/SVG/1.1/DTD/svg11.dtd">
<svg version="1.1" id="Layer_1" xmlns="http://www.w3.org/2000/svg" xmlns:xlink="http://www.w3.org/1999/xlink" x="0px" y="0px"
	 viewBox="0 0 75.6 71.9" enable-background="new 0 0 75.6 71.9" xml:space="preserve">
<g>
	<g>
		<path fill="#177C3E" d="M35.2,37.1l-4.9,13.8c-0.5,1.6-2.1,2.4-3.7,2c-1.5-0.5-2.4-2-2-3.6l4.7-17.5c0.1,0.6,0.3,0.9,0.6,1.2
			L35.2,37.1z"/>
		<path fill="#177C3E" d="M24.4,21.3c0.3,2.8,1.2,4.6,3.6,6.6l5-18.1C24.6,1.8,23.1,8.9,24.4,21.3z"/>
		<path fill="#177C3E" d="M41.4,9.6c2.6,0.1,4.9-2,4.9-4.6c0.1-2.7-2-4.9-4.6-4.9c-2.6,0-4.8,2.2-4.8,4.8
			C36.9,7.3,38.9,9.4,41.4,9.6z"/>
		<path fill="#177C3E" d="M54.6,25.9c0,0-14.9-15.3-13.2-13.6c-3.6-3.8-6-3.5-7.2,1.1l-3.7,13.6c-0.7,2.6,0.4,3.7,1.2,4.3l9.9,7.9
			l0,10.7c0,1.6,1.3,2.9,3,2.9s2.8-1.3,2.8-3V38.1c-0.1-0.9-0.2-1.7-0.9-2.3l-8.3-7.2l3.5-9.9l10.2,9.9v23.2c0,0.7,0.6,1.1,1.1,1.1
			s0.9-0.4,0.9-1.1l0-22.5c0.5-0.1,0.9-0.3,1.2-0.8C55.6,27.5,55.6,27,54.6,25.9z"/>
		<path fill="#177C3E" d="M54.7,25.5"/>
		<path fill="#177C3E" d="M23.4,54.9"/>
	</g>
	<g>
		<path fill="#177C3E" d="M6.3,54.5H0v-3.9h17.1v3.9h-6.3v17H6.3V54.5z"/>
		<path fill="#177C3E" d="M23.2,55.9c4.8,0,7.8,3.2,7.8,8c0,4.8-3.1,8-7.8,8c-4.7,0-7.8-3.2-7.8-8C15.3,59.1,18.4,55.9,23.2,55.9z
			 M23.2,68.7c2.8,0,3.7-2.4,3.7-4.8c0-2.4-0.8-4.9-3.7-4.9c-2.8,0-3.7,2.4-3.7,4.9C19.5,66.3,20.3,68.7,23.2,68.7z"/>
		<path fill="#177C3E" d="M47.9,71.5h-3.9v-2.1h-0.1c-1.1,1.7-2.9,2.5-4.6,2.5c-4.4,0-5.5-2.5-5.5-6.2v-9.3h4.2v8.5
			c0,2.5,0.7,3.7,2.7,3.7c2.3,0,3.2-1.3,3.2-4.3v-7.9h4.2V71.5z"/>
		<path fill="#177C3E" d="M51,56.4H55v2.8H55c0.8-1.9,2.8-3.2,4.8-3.2c0.3,0,0.6,0.1,0.9,0.1v3.9c-0.4-0.1-1-0.1-1.5-0.1
			c-3,0-4.1,2.2-4.1,4.9v6.8H51V56.4z"/>
		<path fill="#177C3E" d="M65.6,66.6c0,1.8,1.5,2.5,3.2,2.5c1.2,0,2.7-0.5,2.7-1.9c0-1.3-1.7-1.7-4.7-2.3c-2.4-0.5-4.8-1.4-4.8-4
			c0-3.9,3.3-4.9,6.6-4.9c3.3,0,6.3,1.1,6.7,4.8h-3.9c-0.1-1.6-1.3-2-2.8-2c-0.9,0-2.3,0.2-2.3,1.4c0,1.5,2.3,1.7,4.7,2.3
			c2.4,0.6,4.8,1.4,4.8,4.2c0,4-3.4,5.3-6.9,5.3c-3.5,0-6.9-1.3-7.1-5.3H65.6z"/>
	</g>
</g>
</svg>
